<svg width="44" height="44" viewBox="0 0 44 44" fill="none" xmlns="http://www.w3.org/2000/svg">
<path fill-rule="evenodd" clip-rule="evenodd" d="M9.43597 14.184C9 15.0397 9 16.1598 9 18.4V25.6C9 27.8402 9 28.9603 9.43597 29.816C9.81947 30.5686 10.4314 31.1805 11.184 31.564C12.0397 32 13.1598 32 15.4 32H25.6C27.8402 32 28.9603 32 29.816 31.564C30.5686 31.1805 31.1805 30.5686 31.564 29.816C31.9515 29.0555 31.9946 28.0862 31.9994 26.3073L34.0518 27.4125C35.3842 28.13 37 27.1649 37 25.6515V18.3484C37 16.8351 35.3843 15.87 34.0518 16.5874L31.9994 17.6926C31.9946 15.9138 31.9515 14.9445 31.564 14.184C31.1805 13.4314 30.5686 12.8195 29.816 12.436C28.9603 12 27.8402 12 25.6 12H15.4C13.1598 12 12.0397 12 11.184 12.436C10.4314 12.8195 9.81947 13.4314 9.43597 14.184Z" fill="url(#paint0_radial)"/>
<circle cx="15" cy="18" r="2" fill="#FFEBC6"/>
<defs>
<radialGradient id="paint0_radial" cx="0" cy="0" r="1" gradientUnits="userSpaceOnUse" gradientTransform="translate(10.9465 13) rotate(45.0325) scale(26.8548 40.0231)">
<stop stop-color="#FFD66C"/>
<stop offset="1" stop-color="#FF8C12"/>
</radialGradient>
</defs>
</svg>
