<svg width="44" height="44" viewBox="0 0 44 44" fill="none" xmlns="http://www.w3.org/2000/svg">
<path fill-rule="evenodd" clip-rule="evenodd" d="M9.55664 21.9997C9.55664 15.1268 15.1283 9.55518 22.0012 9.55518C28.8741 9.55518 34.4458 15.1268 34.4458 21.9997C34.4458 25.4445 33.0457 28.5628 30.7844 30.8157L32.1011 32.4314C32.1641 32.5087 32.1851 32.612 32.1573 32.7078C32.1295 32.8036 32.0564 32.8796 31.9618 32.9111C28.9153 33.9266 25.725 34.4443 22.5137 34.4443H22.0012C15.1283 34.4443 9.55664 28.8727 9.55664 21.9997Z" fill="url(#paint0_radial)"/>
<path d="M17.6758 19.6245C17.6758 19.6264 17.6758 19.6282 17.6758 19.63C17.68 20.1036 18.0652 20.4862 18.5398 20.4862C19.0169 20.4862 19.4037 20.0994 19.4037 19.6222C19.4037 18.3369 20.471 17.2641 21.7624 17.2641C23.069 17.2641 24.1283 18.3234 24.1283 19.63C24.1283 20.3943 23.7507 21.0875 23.1501 21.5465C22.0854 22.319 21.3978 23.6226 21.28 24.9299C21.2362 25.4164 21.6389 25.8705 22.1418 25.8705C22.6288 25.8705 22.9698 25.444 23.0053 24.9772C23.1102 24.1409 23.5506 23.4086 24.1876 22.9194C25.1938 22.1764 25.8489 20.9799 25.8489 19.63C25.8489 17.3731 24.0193 15.5435 21.7624 15.5435C19.5102 15.5435 17.6836 17.3653 17.6758 19.6156C17.6758 19.6178 17.6758 19.62 17.6758 19.6222L17.6758 19.6245Z" fill="#C4FFB5"/>
<path d="M23.1921 27.5942C23.1921 28.1749 22.7213 28.6457 22.1406 28.6457C21.5599 28.6457 21.0892 28.1749 21.0892 27.5942C21.0892 27.0135 21.5599 26.5428 22.1406 26.5428C22.7213 26.5428 23.1921 27.0135 23.1921 27.5942Z" fill="#C4FFB5"/>
<defs>
<radialGradient id="paint0_radial" cx="0" cy="0" r="1" gradientUnits="userSpaceOnUse" gradientTransform="translate(12.0675 7.92747) rotate(52.5614) scale(33.3619)">
<stop stop-color="#29ED8F"/>
<stop offset="1" stop-color="#1FCE9A"/>
</radialGradient>
</defs>
</svg>
