<svg width="44" height="44" viewBox="0 0 44 44" fill="none" xmlns="http://www.w3.org/2000/svg">
<path d="M23.5996 25.0334C23.5996 23.5133 23.5996 22.7532 23.3957 22.1392C22.9979 20.9416 22.0582 20.0019 20.8605 19.6041C20.2466 19.4001 19.4865 19.4001 17.9663 19.4001H14.3997C12.1595 19.4001 11.0394 19.4001 10.1838 19.8361C9.43111 20.2196 8.81919 20.8315 8.4357 21.5842C7.99972 22.4398 7.99972 23.5599 7.99972 25.8001V30.6667H17.9663C19.4865 30.6667 20.2466 30.6667 20.8605 30.4628C22.0582 30.065 22.9979 29.1253 23.3957 27.9276C23.5996 27.3137 23.5996 26.5536 23.5996 25.0334Z" fill="#FFBC8C"/>
<path d="M8.00031 29.8003H14.9336L9.53031 33.1773C8.86426 33.5936 8.00031 33.1148 8.00031 32.3293V29.8003Z" fill="#FFBC8C"/>
<path fill-rule="evenodd" clip-rule="evenodd" d="M13.6371 12.0505C13.2012 12.9061 13.2012 14.0262 13.2012 16.2665V19.933C13.2012 22.1732 13.2012 23.2933 13.6371 24.149C14.0206 24.9016 14.6326 25.5135 15.3852 25.897C16.2409 26.333 17.361 26.333 19.6012 26.333H34.001V16.2665C34.001 14.0262 34.001 12.9061 33.565 12.0505C33.1816 11.2978 32.5696 10.6859 31.817 10.3024C30.9613 9.86646 29.8412 9.86646 27.601 9.86646H19.6012C17.361 9.86646 16.2409 9.86646 15.3852 10.3024C14.6326 10.6859 14.0206 11.2978 13.6371 12.0505ZM27.0675 26.3331H34.0008V28.8621C34.0008 29.6476 33.1369 30.1264 32.4708 29.7101L27.0675 26.3331Z" fill="url(#paint0_radial)"/>
<defs>
<radialGradient id="paint0_radial" cx="0" cy="0" r="1" gradientUnits="userSpaceOnUse" gradientTransform="translate(13.2012 9.86646) rotate(43.6285) scale(28.7358 30.804)">
<stop stop-color="#FF814B"/>
<stop offset="1" stop-color="#F04142"/>
</radialGradient>
</defs>
</svg>
