<svg viewBox="0 0 400 300" fill="none" xmlns="http://www.w3.org/2000/svg"><circle cx="171.875" cy="121.875" r="71.875" fill="#2F9BFF"/><g filter="url(#a)"><path fill-rule="evenodd" clip-rule="evenodd" d="m149.631 243.494-.402.001c-40.996 0-74.229-33.234-74.229-74.229s33.233-74.228 74.229-74.228c6.699 0 13.192.887 19.365 2.551 12.329-16.938 32.311-27.947 54.864-27.947 37.451 0 67.812 30.36 67.812 67.812 0 .697-.01 1.391-.031 2.083 22.1 6.393 38.259 26.779 38.259 50.939 0 29.282-23.738 53.02-53.02 53.02l-.495-.002H149.631Z" fill="#B7D5FF" fill-opacity=".3"/></g><g filter="url(#b)"><path d="M218.337 122.792c13.293 0 24.106 9.827 24.106 21.978 0 3.777-1.11 7.472-3.113 10.802-3.031 4.865-7.879 8.467-13.745 10.181a13.694 13.694 0 0 1-3.842.626 4.48 4.48 0 0 1-3.231-1.289 4.48 4.48 0 0 1-1.34-3.211c0-2.53 2.013-4.495 4.571-4.495.18 0 .555 0 1.012-.174 3.94-1.088 7.053-3.33 8.794-6.312 1.186-1.883 1.741-3.973 1.741-6.128 0-7.128-6.693-12.967-14.856-12.967a16.807 16.807 0 0 0-8.053 2.068c-4.321 2.427-6.878 6.475-6.878 10.899v37.744c0 7.651-4.316 14.681-11.466 18.648-3.842 2.161-8.163 3.254-12.559 3.254-13.289 0-24.107-9.833-24.107-21.984 0-3.771 1.116-7.471 3.113-10.802 3.031-4.864 7.885-8.467 13.745-10.175 1.644-.452 2.754-.626 3.842-.626 2.574 0 4.577 1.986 4.577 4.495a4.5 4.5 0 0 1-1.34 3.21 4.493 4.493 0 0 1-3.231 1.29c-.185 0-.561 0-1.013.174-3.945 1.17-7.052 3.428-8.793 6.307-1.192 1.888-1.742 3.972-1.742 6.133 0 7.128 6.694 12.962 14.932 12.962a16.814 16.814 0 0 0 8.059-2.063c4.316-2.432 6.873-6.481 6.873-10.899v-37.651c0-7.651 4.315-14.676 11.466-18.649a24.1 24.1 0 0 1 12.478-3.346Z" fill="#fff"/><path d="M218.337 122.792c13.293 0 24.106 9.827 24.106 21.978 0 3.777-1.11 7.472-3.113 10.802-3.031 4.865-7.879 8.467-13.745 10.181a13.694 13.694 0 0 1-3.842.626 4.48 4.48 0 0 1-3.231-1.289 4.48 4.48 0 0 1-1.34-3.211c0-2.53 2.013-4.495 4.571-4.495.18 0 .555 0 1.012-.174 3.94-1.088 7.053-3.33 8.794-6.312 1.186-1.883 1.741-3.973 1.741-6.128 0-7.128-6.693-12.967-14.856-12.967a16.807 16.807 0 0 0-8.053 2.068c-4.321 2.427-6.878 6.475-6.878 10.899v37.744c0 7.651-4.316 14.681-11.466 18.648-3.842 2.161-8.163 3.254-12.559 3.254-13.289 0-24.107-9.833-24.107-21.984 0-3.771 1.116-7.471 3.113-10.802 3.031-4.864 7.885-8.467 13.745-10.175 1.644-.452 2.754-.626 3.842-.626 2.574 0 4.577 1.986 4.577 4.495a4.5 4.5 0 0 1-1.34 3.21 4.493 4.493 0 0 1-3.231 1.29c-.185 0-.561 0-1.013.174-3.945 1.17-7.052 3.428-8.793 6.307-1.192 1.888-1.742 3.972-1.742 6.133 0 7.128 6.694 12.962 14.932 12.962a16.814 16.814 0 0 0 8.059-2.063c4.316-2.432 6.873-6.481 6.873-10.899v-37.651c0-7.651 4.315-14.676 11.466-18.649a24.1 24.1 0 0 1 12.478-3.346Z" stroke="#fff" stroke-width="3.349"/></g><defs><filter id="a" x="24.925" y="19.567" width="354.648" height="274.004" filterUnits="userSpaceOnUse" color-interpolation-filters="sRGB"><feFlood flood-opacity="0" result="BackgroundImageFix"/><feGaussianBlur in="BackgroundImage" stdDeviation="25.037"/><feComposite in2="SourceAlpha" operator="in" result="effect1_backgroundBlur_35_2169"/><feBlend in="SourceGraphic" in2="effect1_backgroundBlur_35_2169" result="shape"/><feColorMatrix in="SourceAlpha" values="0 0 0 0 0 0 0 0 0 0 0 0 0 0 0 0 0 0 127 0" result="hardAlpha"/><feOffset dx="8.012" dy="20.03"/><feGaussianBlur stdDeviation="13.211"/><feComposite in2="hardAlpha" operator="arithmetic" k2="-1" k3="1"/><feColorMatrix values="0 0 0 0 1 0 0 0 0 1 0 0 0 0 1 0 0 0 0.25 0"/><feBlend in2="shape" result="effect2_innerShadow_35_2169"/><feColorMatrix in="SourceAlpha" values="0 0 0 0 0 0 0 0 0 0 0 0 0 0 0 0 0 0 127 0" result="hardAlpha"/><feOffset dy="5.007"/><feGaussianBlur stdDeviation="5.007"/><feComposite in2="hardAlpha" operator="arithmetic" k2="-1" k3="1"/><feColorMatrix values="0 0 0 0 1 0 0 0 0 1 0 0 0 0 1 0 0 0 0.2 0"/><feBlend in2="effect2_innerShadow_35_2169" result="effect3_innerShadow_35_2169"/><feColorMatrix in="SourceAlpha" values="0 0 0 0 0 0 0 0 0 0 0 0 0 0 0 0 0 0 127 0" result="hardAlpha"/><feOffset dy="-5.007"/><feGaussianBlur stdDeviation="5.007"/><feComposite in2="hardAlpha" operator="arithmetic" k2="-1" k3="1"/><feColorMatrix values="0 0 0 0 0.103594 0 0 0 0 0.52793 0 0 0 0 0.920833 0 0 0 0.16 0"/><feBlend in2="effect3_innerShadow_35_2169" result="effect4_innerShadow_35_2169"/></filter><filter id="b" x="153.697" y="121.116" width="90.42" height="91.225" filterUnits="userSpaceOnUse" color-interpolation-filters="sRGB"><feFlood flood-opacity="0" result="BackgroundImageFix"/><feColorMatrix in="SourceAlpha" values="0 0 0 0 0 0 0 0 0 0 0 0 0 0 0 0 0 0 127 0" result="hardAlpha"/><feOffset dy="6.25"/><feColorMatrix values="0 0 0 0 0.184314 0 0 0 0 0.607843 0 0 0 0 1 0 0 0 0.3 0"/><feBlend in2="BackgroundImageFix" result="effect1_dropShadow_35_2169"/><feBlend in="SourceGraphic" in2="effect1_dropShadow_35_2169" result="shape"/></filter></defs></svg>