<svg viewBox="0 0 400 300" fill="none" xmlns="http://www.w3.org/2000/svg"><g filter="url(#a)"><rect x="75" y="56.25" width="206.036" height="140.141" rx="18.333" fill="#2F9BFF"/></g><g filter="url(#b)"><rect x="91.626" y="82.391" width="238.333" height="155.833" rx="18.333" fill="#B7D5FF" fill-opacity=".3"/></g><g filter="url(#c)"><path d="M193.346 134.462c-.331-.994-1.324-1.656-2.317-1.656h-7.283c-.993 0-1.986.662-2.317 1.656l-19.2 50.316c-.331.662-.331 1.655.331 2.318.331.662 1.324.993 1.986.993h6.952c.993 0 1.986-.662 2.317-1.656l4.966-13.572h17.544l5.297 13.572c.331.994 1.324 1.656 2.317 1.656h7.614c.993 0 1.655-.331 1.986-.993.331-.663.662-1.656.331-2.318l-20.524-50.316Zm-10.924 28.137 4.303-11.586c.332-.662.332-1.324.663-1.986.331.993.662 1.655.993 2.648l3.972 10.593h-9.931v.331Zm69.848-24.827c-2.318-1.986-5.297-3.31-8.276-4.304-2.317-.662-5.297-.662-9.6-.662H217.18c-1.324 0-2.648.993-2.648 2.649v50.316c0 1.325.993 2.649 2.648 2.649h18.207c3.31 0 6.29-.331 8.607-.993 2.648-.662 4.965-1.656 6.952-2.98 1.986-1.324 3.641-2.979 5.296-5.296 1.655-2.317 2.979-4.966 3.641-7.945.994-3.31 1.325-6.952 1.325-10.924 0-4.634-.663-8.938-1.987-12.91-1.655-3.973-3.972-6.952-6.951-9.6Zm-4.304 31.448c-.662 2.317-1.655 3.972-2.979 5.296-.993.993-1.986 1.656-3.641 1.987-1.655.662-3.973.662-6.952.662h-8.276V143.73h7.945c4.634 0 6.621.331 7.614.994 1.986.662 3.641 2.317 4.965 4.634 1.324 2.317 2.317 5.959 2.317 10.924.331 3.31 0 6.29-.993 8.938Z" fill="#fff"/></g><circle cx="302.453" cy="105.309" r="9.167" fill="#fff"/><circle opacity=".5" cx="270.373" cy="105.309" r="9.167" fill="#fff"/><defs><filter id="a" x="75" y="56.25" width="206.036" height="140.943" filterUnits="userSpaceOnUse" color-interpolation-filters="sRGB"><feFlood flood-opacity="0" result="BackgroundImageFix"/><feBlend in="SourceGraphic" in2="BackgroundImageFix" result="shape"/><feColorMatrix in="SourceAlpha" values="0 0 0 0 0 0 0 0 0 0 0 0 0 0 0 0 0 0 127 0" result="hardAlpha"/><feOffset dy=".802"/><feGaussianBlur stdDeviation=".802"/><feComposite in2="hardAlpha" operator="arithmetic" k2="-1" k3="1"/><feColorMatrix values="0 0 0 0 1 0 0 0 0 1 0 0 0 0 1 0 0 0 0.21 0"/><feBlend in2="shape" result="effect1_innerShadow_35_2165"/></filter><filter id="b" x="70.155" y="60.92" width="281.276" height="198.776" filterUnits="userSpaceOnUse" color-interpolation-filters="sRGB"><feFlood flood-opacity="0" result="BackgroundImageFix"/><feGaussianBlur in="BackgroundImage" stdDeviation="10.736"/><feComposite in2="SourceAlpha" operator="in" result="effect1_backgroundBlur_35_2165"/><feBlend in="SourceGraphic" in2="effect1_backgroundBlur_35_2165" result="shape"/><feColorMatrix in="SourceAlpha" values="0 0 0 0 0 0 0 0 0 0 0 0 0 0 0 0 0 0 127 0" result="hardAlpha"/><feOffset dx="3.435" dy="8.589"/><feGaussianBlur stdDeviation="5.665"/><feComposite in2="hardAlpha" operator="arithmetic" k2="-1" k3="1"/><feColorMatrix values="0 0 0 0 1 0 0 0 0 1 0 0 0 0 1 0 0 0 0.25 0"/><feBlend in2="shape" result="effect2_innerShadow_35_2165"/><feColorMatrix in="SourceAlpha" values="0 0 0 0 0 0 0 0 0 0 0 0 0 0 0 0 0 0 127 0" result="hardAlpha"/><feOffset dy="2.147"/><feGaussianBlur stdDeviation="2.147"/><feComposite in2="hardAlpha" operator="arithmetic" k2="-1" k3="1"/><feColorMatrix values="0 0 0 0 1 0 0 0 0 1 0 0 0 0 1 0 0 0 0.2 0"/><feBlend in2="effect2_innerShadow_35_2165" result="effect3_innerShadow_35_2165"/><feColorMatrix in="SourceAlpha" values="0 0 0 0 0 0 0 0 0 0 0 0 0 0 0 0 0 0 127 0" result="hardAlpha"/><feOffset dy="-2.147"/><feGaussianBlur stdDeviation="2.147"/><feComposite in2="hardAlpha" operator="arithmetic" k2="-1" k3="1"/><feColorMatrix values="0 0 0 0 0.103594 0 0 0 0 0.52793 0 0 0 0 0.920833 0 0 0 0.16 0"/><feBlend in2="effect3_innerShadow_35_2165" result="effect4_innerShadow_35_2165"/></filter><filter id="c" x="162.012" y="132.806" width="99.196" height="61.678" filterUnits="userSpaceOnUse" color-interpolation-filters="sRGB"><feFlood flood-opacity="0" result="BackgroundImageFix"/><feColorMatrix in="SourceAlpha" values="0 0 0 0 0 0 0 0 0 0 0 0 0 0 0 0 0 0 127 0" result="hardAlpha"/><feOffset dy="6.064"/><feColorMatrix values="0 0 0 0 0.184314 0 0 0 0 0.607843 0 0 0 0 1 0 0 0 0.3 0"/><feBlend in2="BackgroundImageFix" result="effect1_dropShadow_35_2165"/><feBlend in="SourceGraphic" in2="effect1_dropShadow_35_2165" result="shape"/></filter></defs></svg>