<svg viewBox="0 0 400 300" fill="none" xmlns="http://www.w3.org/2000/svg"><g filter="url(#a)"><path d="M172.654 55.776c6.269-13.545 22.331-19.444 35.877-13.175l75.731 35.051c13.545 6.27 19.444 22.332 13.175 35.877L236.134 245.98c-6.269 13.545-22.332 19.444-35.877 13.175l-75.731-35.051c-13.545-6.269-19.444-22.332-13.175-35.877l61.303-132.451Z" fill="#2F9BFF"/></g><g filter="url(#b)"><path d="M87 79.003C87 70.165 94.165 63 103.003 63h107.085c8.838 0 16.003 7.165 16.003 16.003v170.308c0 8.839-7.165 16.004-16.003 16.004H103.003c-8.838 0-16.003-7.165-16.003-16.004V79.003Z" fill="#B7D5FF" fill-opacity=".3"/></g><g filter="url(#c)"><path fill-rule="evenodd" clip-rule="evenodd" d="M164.037 141.407a7.408 7.408 0 0 0-14.815 0v14.816h-14.815a7.408 7.408 0 0 0 0 14.815h14.815v14.814a7.408 7.408 0 0 0 14.815 0v-14.814h14.815a7.408 7.408 0 0 0 0-14.815h-14.815v-14.816Z" fill="#fff"/></g><defs><filter id="a" x="108.845" y="40.095" width="191.097" height="224.69" filterUnits="userSpaceOnUse" color-interpolation-filters="sRGB"><feFlood flood-opacity="0" result="BackgroundImageFix"/><feBlend in="SourceGraphic" in2="BackgroundImageFix" result="shape"/><feColorMatrix in="SourceAlpha" values="0 0 0 0 0 0 0 0 0 0 0 0 0 0 0 0 0 0 127 0" result="hardAlpha"/><feOffset dy="3.125"/><feGaussianBlur stdDeviation="3.125"/><feComposite in2="hardAlpha" operator="arithmetic" k2="-1" k3="1"/><feColorMatrix values="0 0 0 0 1 0 0 0 0 1 0 0 0 0 1 0 0 0 0.21 0"/><feBlend in2="shape" result="effect1_innerShadow_35_2159"/></filter><filter id="b" x="55.75" y="31.75" width="201.591" height="264.815" filterUnits="userSpaceOnUse" color-interpolation-filters="sRGB"><feFlood flood-opacity="0" result="BackgroundImageFix"/><feGaussianBlur in="BackgroundImage" stdDeviation="15.625"/><feComposite in2="SourceAlpha" operator="in" result="effect1_backgroundBlur_35_2159"/><feBlend in="SourceGraphic" in2="effect1_backgroundBlur_35_2159" result="shape"/><feColorMatrix in="SourceAlpha" values="0 0 0 0 0 0 0 0 0 0 0 0 0 0 0 0 0 0 127 0" result="hardAlpha"/><feOffset dx="5" dy="12.5"/><feGaussianBlur stdDeviation="8.245"/><feComposite in2="hardAlpha" operator="arithmetic" k2="-1" k3="1"/><feColorMatrix values="0 0 0 0 1 0 0 0 0 1 0 0 0 0 1 0 0 0 0.25 0"/><feBlend in2="shape" result="effect2_innerShadow_35_2159"/><feColorMatrix in="SourceAlpha" values="0 0 0 0 0 0 0 0 0 0 0 0 0 0 0 0 0 0 127 0" result="hardAlpha"/><feOffset dy="3.125"/><feGaussianBlur stdDeviation="3.125"/><feComposite in2="hardAlpha" operator="arithmetic" k2="-1" k3="1"/><feColorMatrix values="0 0 0 0 1 0 0 0 0 1 0 0 0 0 1 0 0 0 0.2 0"/><feBlend in2="effect2_innerShadow_35_2159" result="effect3_innerShadow_35_2159"/><feColorMatrix in="SourceAlpha" values="0 0 0 0 0 0 0 0 0 0 0 0 0 0 0 0 0 0 127 0" result="hardAlpha"/><feOffset dy="-3.125"/><feGaussianBlur stdDeviation="3.125"/><feComposite in2="hardAlpha" operator="arithmetic" k2="-1" k3="1"/><feColorMatrix values="0 0 0 0 0.103594 0 0 0 0 0.52793 0 0 0 0 0.920833 0 0 0 0.16 0"/><feBlend in2="effect3_innerShadow_35_2159" result="effect4_innerShadow_35_2159"/></filter><filter id="c" x="116.853" y="123.853" width="79.554" height="81.907" filterUnits="userSpaceOnUse" color-interpolation-filters="sRGB"><feFlood flood-opacity="0" result="BackgroundImageFix"/><feGaussianBlur in="BackgroundImage" stdDeviation="5.074"/><feComposite in2="SourceAlpha" operator="in" result="effect1_backgroundBlur_35_2159"/><feColorMatrix in="SourceAlpha" values="0 0 0 0 0 0 0 0 0 0 0 0 0 0 0 0 0 0 127 0" result="hardAlpha"/><feOffset dy="6.25"/><feColorMatrix values="0 0 0 0 0.184314 0 0 0 0 0.607843 0 0 0 0 1 0 0 0 0.6 0"/><feBlend in2="effect1_backgroundBlur_35_2159" result="effect2_dropShadow_35_2159"/><feBlend in="SourceGraphic" in2="effect2_dropShadow_35_2159" result="shape"/><feColorMatrix in="SourceAlpha" values="0 0 0 0 0 0 0 0 0 0 0 0 0 0 0 0 0 0 127 0" result="hardAlpha"/><feOffset dx="5" dy="12.5"/><feGaussianBlur stdDeviation="8.245"/><feComposite in2="hardAlpha" operator="arithmetic" k2="-1" k3="1"/><feColorMatrix values="0 0 0 0 1 0 0 0 0 1 0 0 0 0 1 0 0 0 0.25 0"/><feBlend in2="shape" result="effect3_innerShadow_35_2159"/></filter></defs></svg>