<svg viewBox="0 0 400 300" fill="none" xmlns="http://www.w3.org/2000/svg"><g filter="url(#a)"><path d="M292.406 191.449c16.666-22.017 13.084-52.916-7.96-68.845-10.395-7.868-23.655-10.796-36.594-8.462-1.276-13.094-7.703-25.068-18.079-32.922-21.054-15.937-51.747-10.998-68.42 11.029a18.564 18.564 0 0 0-.988 1.455c-.239.384-.51.747-.783 1.107-2.951 3.9-5.256 8.893-6.851 14.839a6.52 6.52 0 0 0-.173.614c-9.658 36.938 10.64 103.209 11.42 106.139a8.168 8.168 0 0 0 2.97 4.399 8.182 8.182 0 0 0 5.109 1.654c2.601-.044 61.791 1.161 96.802-13.581 1.247-.451 2.325-.982 3.265-1.432.296-.148.582-.303.881-.433l.131-.072c.239-.105.486-.197.721-.313 2.11-1.037 3.973-2.089 5.677-3.206 4.719-2.964 8.292-6.082 10.908-9.538.353-.466.707-.932 1.093-1.369.27-.306.566-.66.871-1.063Z" fill="#2F9BFF"/></g><g filter="url(#b)"><path d="M286.37 44.326c-1.134-7.209-7.67-12.193-14.56-11.11-3.403.535-6.392 2.521-8.32 5.411-2.726-2.158-6.183-3.131-9.58-2.597-6.893 1.084-11.582 7.83-10.448 15.041.026.167.061.32.096.455.029.116.048.234.067.352.201 1.277.728 2.631 1.567 4.025.028.052.055.1.085.145 5.258 8.612 21.59 16.902 22.29 17.29a2.164 2.164 0 0 0 2.634-.427c.468-.502 11.551-11.544 15.166-20.91.143-.32.24-.622.327-.883.026-.084.049-.166.079-.247l.01-.038c.024-.065.052-.129.073-.195.189-.592.331-1.14.431-1.668.301-1.442.363-2.693.185-3.825a6.44 6.44 0 0 1-.06-.459 5.426 5.426 0 0 0-.042-.36Z" fill="#2F9BFF"/></g><g filter="url(#c)"><path d="M81.25 49.34c0-9.559 7.749-17.308 17.308-17.308H214.37c9.559 0 17.308 7.75 17.308 17.308v184.19c0 9.559-7.749 17.308-17.308 17.308H98.558c-9.559 0-17.308-7.749-17.308-17.308V49.34Z" fill="#B7D5FF" fill-opacity=".3"/></g><path fill-rule="evenodd" clip-rule="evenodd" d="M149.87 168.833c5.962 0 10.826-4.916 11.047-11.042l.021-54.701h9.64a19.66 19.66 0 0 1-.311-3.464H157.1l-.021 54.701c-.221 6.126-5.085 11.042-11.047 11.042-1.853 0-3.598-.48-5.134-1.318 2.012 2.89 5.279 4.782 8.972 4.782Zm-.563-36.581v-3.233a23.322 23.322 0 0 0-3.266-.245c-13.363 0-24.234 11.27-24.234 25.123 0 8.499 4.096 16.021 10.346 20.569-4.034-4.488-6.508-10.501-6.508-17.105 0-13.655 10.563-24.792 23.662-25.109Zm39.287-13.638v3.041c-3.944-.875-7.418-3.07-9.976-6.116 2.873 1.942 6.298 3.075 9.976 3.075Z" fill="url(#d)"/><path d="M178.618 115.539c-2.803-3.336-4.505-7.69-4.505-12.451h-3.527c.929 5.201 3.906 9.663 8.032 12.451ZM146.029 142.421c-6.103 0-11.068 5.148-11.068 11.474 0 4.406 2.411 8.234 5.934 10.156a11.683 11.683 0 0 1-2.096-6.692c0-6.327 4.965-11.474 11.067-11.474 1.14 0 2.232.195 3.266.531v-13.935a23.3 23.3 0 0 0-3.266-.245c-.191 0-.381.01-.572.015v10.701a10.53 10.53 0 0 0-3.265-.531Z" fill="#fff"/><mask id="e" style="mask-type:alpha" maskUnits="userSpaceOnUse" x="132" y="121" width="61" height="62"><path fill-rule="evenodd" clip-rule="evenodd" d="M132.152 121.655h60.279v60.826h-60.279v-60.826Z" fill="#fff"/></mask><g mask="url(#e)"><path d="M188.593 121.655v10.608c-6.827 0-13.154-2.264-18.318-6.106v27.738c0 13.853-10.871 25.123-24.234 25.123-5.164 0-9.952-1.689-13.889-4.554 4.428 4.927 10.734 8.017 17.726 8.017 13.364 0 24.235-11.27 24.235-25.123V129.62c5.164 3.842 11.491 6.107 18.318 6.107v-13.65a17.75 17.75 0 0 1-3.838-.422Z" fill="#fff"/></g><path d="M170.266 153.895v-27.738c5.164 3.842 11.491 6.106 18.318 6.106v-10.608c-3.944-.875-7.418-3.071-9.975-6.116-4.126-2.788-7.103-7.25-8.032-12.451h-9.64l-.021 54.702c-.222 6.125-5.084 11.042-11.047 11.042-3.692 0-6.96-1.892-8.971-4.782-3.523-1.922-5.934-5.75-5.934-10.155 0-6.327 4.965-11.474 11.068-11.474 1.139 0 2.232.195 3.265.53V132.25c-13.099.318-23.662 11.454-23.662 25.108 0 6.604 2.474 12.618 6.508 17.107 3.936 2.864 8.725 4.552 13.889 4.552 13.363 0 24.234-11.269 24.234-25.122Z" fill="#fff"/><defs><filter id="a" x="149.958" y="71.873" width="152.939" height="151.972" filterUnits="userSpaceOnUse" color-interpolation-filters="sRGB"><feFlood flood-opacity="0" result="BackgroundImageFix"/><feBlend in="SourceGraphic" in2="BackgroundImageFix" result="shape"/><feColorMatrix in="SourceAlpha" values="0 0 0 0 0 0 0 0 0 0 0 0 0 0 0 0 0 0 127 0" result="hardAlpha"/><feOffset dy="1.38"/><feGaussianBlur stdDeviation="1.38"/><feComposite in2="hardAlpha" operator="arithmetic" k2="-1" k3="1"/><feColorMatrix values="0 0 0 0 1 0 0 0 0 1 0 0 0 0 1 0 0 0 0.21 0"/><feBlend in2="shape" result="effect1_innerShadow_35_2161"/></filter><filter id="b" x="243.293" y="33.068" width="43.278" height="40.904" filterUnits="userSpaceOnUse" color-interpolation-filters="sRGB"><feFlood flood-opacity="0" result="BackgroundImageFix"/><feBlend in="SourceGraphic" in2="BackgroundImageFix" result="shape"/><feColorMatrix in="SourceAlpha" values="0 0 0 0 0 0 0 0 0 0 0 0 0 0 0 0 0 0 127 0" result="hardAlpha"/><feOffset dy=".365"/><feGaussianBlur stdDeviation=".365"/><feComposite in2="hardAlpha" operator="arithmetic" k2="-1" k3="1"/><feColorMatrix values="0 0 0 0 1 0 0 0 0 1 0 0 0 0 1 0 0 0 0.21 0"/><feBlend in2="shape" result="effect1_innerShadow_35_2161"/></filter><filter id="c" x="47.453" y="-1.765" width="218.023" height="286.399" filterUnits="userSpaceOnUse" color-interpolation-filters="sRGB"><feFlood flood-opacity="0" result="BackgroundImageFix"/><feGaussianBlur in="BackgroundImage" stdDeviation="16.899"/><feComposite in2="SourceAlpha" operator="in" result="effect1_backgroundBlur_35_2161"/><feBlend in="SourceGraphic" in2="effect1_backgroundBlur_35_2161" result="shape"/><feColorMatrix in="SourceAlpha" values="0 0 0 0 0 0 0 0 0 0 0 0 0 0 0 0 0 0 127 0" result="hardAlpha"/><feOffset dx="5.408" dy="13.519"/><feGaussianBlur stdDeviation="8.917"/><feComposite in2="hardAlpha" operator="arithmetic" k2="-1" k3="1"/><feColorMatrix values="0 0 0 0 1 0 0 0 0 1 0 0 0 0 1 0 0 0 0.25 0"/><feBlend in2="shape" result="effect2_innerShadow_35_2161"/><feColorMatrix in="SourceAlpha" values="0 0 0 0 0 0 0 0 0 0 0 0 0 0 0 0 0 0 127 0" result="hardAlpha"/><feOffset dy="3.38"/><feGaussianBlur stdDeviation="3.38"/><feComposite in2="hardAlpha" operator="arithmetic" k2="-1" k3="1"/><feColorMatrix values="0 0 0 0 1 0 0 0 0 1 0 0 0 0 1 0 0 0 0.2 0"/><feBlend in2="effect2_innerShadow_35_2161" result="effect3_innerShadow_35_2161"/><feColorMatrix in="SourceAlpha" values="0 0 0 0 0 0 0 0 0 0 0 0 0 0 0 0 0 0 127 0" result="hardAlpha"/><feOffset dy="-3.38"/><feGaussianBlur stdDeviation="3.38"/><feComposite in2="hardAlpha" operator="arithmetic" k2="-1" k3="1"/><feColorMatrix values="0 0 0 0 0.103594 0 0 0 0 0.52793 0 0 0 0 0.920833 0 0 0 0.16 0"/><feBlend in2="effect3_innerShadow_35_2161" result="effect4_innerShadow_35_2161"/></filter><linearGradient id="d" x1="76.766" y1="152.408" x2="181.121" y2="241.457" gradientUnits="userSpaceOnUse"><stop stop-color="#2F88FF"/><stop offset="1" stop-color="#0E4AB3"/></linearGradient></defs></svg>